<svg xmlns="http://www.w3.org/2000/svg" xmlns:dc="http://purl.org/dc/elements/1.1/" xmlns:ns2="http://creativecommons.org/ns#" xmlns:rdf="http://www.w3.org/1999/02/22-rdf-syntax-ns#" xmlns:xlink="http://www.w3.org/1999/xlink" height="427.0" viewBox="0.0 0.0 370.5 427.0" width="371.0">
<g class="graph" id="graph0" transform="scale(1.0 1.0) rotate(0) translate(4 423)">
<title>G</title>
<polygon fill="white" points="-4,4 -4,-423 366.5,-423 366.5,4 -4,4" stroke="transparent" />
<g class="cluster" id="clust8">
<title>cluster_legend</title>
</g>

<g class="node" id="node1">
<title>node4</title>
<text fill="#444443" font-family="Helvetica,sans-Serif" font-size="12.00" text-anchor="start" x="80.5" y="-138.4">x_1@-0.76</text>
</g>

<g class="node" id="node8">
<title>leaf5</title>
<polygon fill="none" points="83,-60.5 54,-60.5 54,-22.5 83,-22.5 83,-60.5" stroke="#444443" stroke-width="0" />
<svg height="30px" preserveAspectRatio="xMinYMin meet" version="1.1" viewBox="0 0 28.067344 39.517606" width="21px" x="58.5" y="-56.5">
 <metadata>
  <rdf:RDF>
   <ns2:Work>
    <dc:type rdf:resource="http://purl.org/dc/dcmitype/StillImage" />
    <dc:date>2023-03-07T21:00:00.995307</dc:date>
    <dc:format>image/svg+xml</dc:format>
    <dc:creator>
     <ns2:Agent>
      <dc:title>Matplotlib v3.4.1, https://matplotlib.org/</dc:title>
     </ns2:Agent>
    </dc:creator>
   </ns2:Work>
  </rdf:RDF>
 </metadata>
 <defs>
  <style type="text/css">*{stroke-linecap:butt;stroke-linejoin:round;}</style>
 </defs>
 <g id="figure_1">
  <g id="patch_1">
   <path d="M 0 39.517606  L 28.067344 39.517606  L 28.067344 0  L 0 0  z " style="fill:none;" />
  </g>
  <g id="axes_1">
   <g id="patch_2">
    <path d="M 23.999672 9.965982  C 23.999672 8.80345 23.796258 7.649833 23.398649 6.55741  C 23.001039 5.464986 22.415332 4.450512 21.668071 3.559961  L 14.033672 9.965982  L 23.999672 9.965982  z " style="fill:#ff0028;stroke:#444443;stroke-linejoin:miter;stroke-width:0.5;" />
   </g>
   <g id="patch_3">
    <path d="M 21.668071 3.559961  C 21.668071 3.559961 21.668071 3.559961 21.668071 3.559961  L 14.033672 9.965982  L 21.668071 3.559961  z " style="fill:#5bff00;stroke:#444443;stroke-linejoin:miter;stroke-width:0.5;" />
   </g>
   <g id="patch_4">
    <path d="M 21.668071 3.559961  C 20.543663 2.219944 19.086019 1.19929 17.442244 0.601006  C 15.79847 0.002721 14.025787 -0.152369 12.303094 0.151388  C 10.580401 0.455146 8.967667 1.207176 7.62765 2.331584  C 6.287633 3.455992 5.26698 4.913636 4.668695 6.55741  L 14.033672 9.965982  L 21.668071 3.559961  z " style="fill:#008fff;stroke:#444443;stroke-linejoin:miter;stroke-width:0.5;" />
   </g>
   <g id="patch_5">
    <path d="M 4.668695 6.55741  C 4.17098 7.92487 3.978765 9.384894 4.105596 10.834577  C 4.232427 12.28426 4.675253 13.688725 5.402863 14.948983  C 6.130474 16.209241 7.125363 17.294972 8.31741 18.129652  C 9.509457 18.964332 10.869983 19.52788 12.303096 19.780577  C 13.736208 20.033273 15.207429 19.969038 16.613064 19.592399  C 18.018699 19.21576 19.324931 18.535778 20.439695 17.60038  C 21.554458 16.664982 22.450934 15.496672 23.065936 14.177794  C 23.680939 12.858916 23.999672 11.421201 23.999672 9.96598  L 14.033672 9.965982  L 4.668695 6.55741  z " style="fill:#ff00bf;stroke:#444443;stroke-linejoin:miter;stroke-width:0.5;" />
   </g>
   <g id="text_1">
    
    <g style="fill:#444443;" transform="translate(4.547812 27.567856)scale(0.09 -0.09)">
     <defs>
      <path d="M 3513 2113  L 3513 0  L 2938 0  L 2938 2094  Q 2938 2591 2744 2837  Q 2550 3084 2163 3084  Q 1697 3084 1428 2787  Q 1159 2491 1159 1978  L 1159 0  L 581 0  L 581 3500  L 1159 3500  L 1159 2956  Q 1366 3272 1645 3428  Q 1925 3584 2291 3584  Q 2894 3584 3203 3211  Q 3513 2838 3513 2113  z " id="DejaVuSans-6e" transform="scale(0.015625)" />
      <path d="M 678 2906  L 4684 2906  L 4684 2381  L 678 2381  L 678 2906  z M 678 1631  L 4684 1631  L 4684 1100  L 678 1100  L 678 1631  z " id="DejaVuSans-3d" transform="scale(0.015625)" />
      <path d="M 703 97  L 703 672  Q 941 559 1184 500  Q 1428 441 1663 441  Q 2288 441 2617 861  Q 2947 1281 2994 2138  Q 2813 1869 2534 1725  Q 2256 1581 1919 1581  Q 1219 1581 811 2004  Q 403 2428 403 3163  Q 403 3881 828 4315  Q 1253 4750 1959 4750  Q 2769 4750 3195 4129  Q 3622 3509 3622 2328  Q 3622 1225 3098 567  Q 2575 -91 1691 -91  Q 1453 -91 1209 -44  Q 966 3 703 97  z M 1959 2075  Q 2384 2075 2632 2365  Q 2881 2656 2881 3163  Q 2881 3666 2632 3958  Q 2384 4250 1959 4250  Q 1534 4250 1286 3958  Q 1038 3666 1038 3163  Q 1038 2656 1286 2365  Q 1534 2075 1959 2075  z " id="DejaVuSans-39" transform="scale(0.015625)" />
     </defs>
     <use xlink:href="#DejaVuSans-6e" />
     <use x="63.378906" xlink:href="#DejaVuSans-3d" />
     <use x="147.167969" xlink:href="#DejaVuSans-39" />
    </g>
    
    <g style="fill:#444443;" transform="translate(-0 37.645887)scale(0.09 -0.09)">
     <defs>
      <path d="M 3122 3366  L 3122 2828  Q 2878 2963 2633 3030  Q 2388 3097 2138 3097  Q 1578 3097 1268 2742  Q 959 2388 959 1747  Q 959 1106 1268 751  Q 1578 397 2138 397  Q 2388 397 2633 464  Q 2878 531 3122 666  L 3122 134  Q 2881 22 2623 -34  Q 2366 -91 2075 -91  Q 1284 -91 818 406  Q 353 903 353 1747  Q 353 2603 823 3093  Q 1294 3584 2113 3584  Q 2378 3584 2631 3529  Q 2884 3475 3122 3366  z " id="DejaVuSans-63" transform="scale(0.015625)" />
      <path d="M 603 4863  L 1178 4863  L 1178 0  L 603 0  L 603 4863  z " id="DejaVuSans-6c" transform="scale(0.015625)" />
      <path d="M 2194 1759  Q 1497 1759 1228 1600  Q 959 1441 959 1056  Q 959 750 1161 570  Q 1363 391 1709 391  Q 2188 391 2477 730  Q 2766 1069 2766 1631  L 2766 1759  L 2194 1759  z M 3341 1997  L 3341 0  L 2766 0  L 2766 531  Q 2569 213 2275 61  Q 1981 -91 1556 -91  Q 1019 -91 701 211  Q 384 513 384 1019  Q 384 1609 779 1909  Q 1175 2209 1959 2209  L 2766 2209  L 2766 2266  Q 2766 2663 2505 2880  Q 2244 3097 1772 3097  Q 1472 3097 1187 3025  Q 903 2953 641 2809  L 641 3341  Q 956 3463 1253 3523  Q 1550 3584 1831 3584  Q 2591 3584 2966 3190  Q 3341 2797 3341 1997  z " id="DejaVuSans-61" transform="scale(0.015625)" />
      <path d="M 2834 3397  L 2834 2853  Q 2591 2978 2328 3040  Q 2066 3103 1784 3103  Q 1356 3103 1142 2972  Q 928 2841 928 2578  Q 928 2378 1081 2264  Q 1234 2150 1697 2047  L 1894 2003  Q 2506 1872 2764 1633  Q 3022 1394 3022 966  Q 3022 478 2636 193  Q 2250 -91 1575 -91  Q 1294 -91 989 -36  Q 684 19 347 128  L 347 722  Q 666 556 975 473  Q 1284 391 1588 391  Q 1994 391 2212 530  Q 2431 669 2431 922  Q 2431 1156 2273 1281  Q 2116 1406 1581 1522  L 1381 1569  Q 847 1681 609 1914  Q 372 2147 372 2553  Q 372 3047 722 3315  Q 1072 3584 1716 3584  Q 2034 3584 2315 3537  Q 2597 3491 2834 3397  z " id="DejaVuSans-73" transform="scale(0.015625)" />
      <path d="M 2419 4116  L 825 1625  L 2419 1625  L 2419 4116  z M 2253 4666  L 3047 4666  L 3047 1625  L 3713 1625  L 3713 1100  L 3047 1100  L 3047 0  L 2419 0  L 2419 1100  L 313 1100  L 313 1709  L 2253 4666  z " id="DejaVuSans-34" transform="scale(0.015625)" />
     </defs>
     <use xlink:href="#DejaVuSans-63" />
     <use x="54.980469" xlink:href="#DejaVuSans-6c" />
     <use x="82.763672" xlink:href="#DejaVuSans-61" />
     <use x="144.042969" xlink:href="#DejaVuSans-73" />
     <use x="196.142578" xlink:href="#DejaVuSans-73" />
     <use x="248.242188" xlink:href="#DejaVuSans-34" />
    </g>
   </g>
  </g>
 </g>
</svg></g>

<g class="edge" id="edge1">
<title>node4-&gt;leaf5</title>
<path d="M110.01,-134.95C104.03,-121.63 88.6,-87.26 78.33,-64.39" fill="none" stroke="#444443" stroke-width="0.3" />
<polygon fill="#444443" points="79.52,-63.62 76.6,-60.54 76.96,-64.77 79.52,-63.62" stroke="#444443" stroke-width="0.3" />
</g>

<g class="node" id="node9">
<title>leaf6</title>
<polygon fill="none" points="126,-58 97,-58 97,-25 126,-25 126,-58" stroke="#444443" stroke-width="0" />
<svg height="25px" preserveAspectRatio="xMinYMin meet" version="1.1" viewBox="0 0 28.067344 33.236024" width="21px" x="101.5" y="-53.5">
 <metadata>
  <rdf:RDF>
   <ns2:Work>
    <dc:type rdf:resource="http://purl.org/dc/dcmitype/StillImage" />
    <dc:date>2023-03-07T21:00:01.046055</dc:date>
    <dc:format>image/svg+xml</dc:format>
    <dc:creator>
     <ns2:Agent>
      <dc:title>Matplotlib v3.4.1, https://matplotlib.org/</dc:title>
     </ns2:Agent>
    </dc:creator>
   </ns2:Work>
  </rdf:RDF>
 </metadata>
 <defs>
  <style type="text/css">*{stroke-linecap:butt;stroke-linejoin:round;}</style>
 </defs>
 <g id="figure_1">
  <g id="patch_1">
   <path d="M 0 33.236024  L 28.067344 33.236024  L 28.067344 -0  L 0 -0  z " style="fill:none;" />
  </g>
  <g id="axes_1">
   <g id="patch_2">
    <path d="M 20.979672 6.946  C 20.979672 6.03386 20.8 5.130589 20.450939 4.287881  C 20.101878 3.445173 19.590216 2.679417 18.945236 2.034436  C 18.300255 1.389456 17.534499 0.877794 16.691791 0.528733  C 15.849083 0.179672 14.945812 -0 14.033672 -0  C 13.121532 -0 12.218261 0.179672 11.375553 0.528733  C 10.532845 0.877794 9.767089 1.389456 9.122108 2.034436  C 8.477128 2.679417 7.965466 3.445173 7.616405 4.287881  C 7.267344 5.130589 7.087672 6.03386 7.087672 6.946  C 7.087672 7.85814 7.267344 8.761411 7.616405 9.604119  C 7.965466 10.446827 8.477128 11.212583 9.122108 11.857564  C 9.767089 12.502544 10.532845 13.014206 11.375553 13.363267  C 12.218261 13.712328 13.121532 13.892 14.033672 13.892  C 14.945812 13.892 15.849083 13.712328 16.691791 13.363267  C 17.534499 13.014206 18.300255 12.502544 18.945236 11.857564  C 19.590216 11.212583 20.101878 10.446827 20.450939 9.604119  C 20.8 8.761411 20.979672 7.85814 20.979672 6.946  M 14.033672 6.946  M 20.979672 6.946  z " style="fill:#ff0028;stroke:#444443;stroke-linejoin:miter;stroke-width:0.5;" />
   </g>
   <g id="text_1">
    
    <g style="fill:#444443;" transform="translate(4.547812 21.286274)scale(0.09 -0.09)">
     <defs>
      <path d="M 3513 2113  L 3513 0  L 2938 0  L 2938 2094  Q 2938 2591 2744 2837  Q 2550 3084 2163 3084  Q 1697 3084 1428 2787  Q 1159 2491 1159 1978  L 1159 0  L 581 0  L 581 3500  L 1159 3500  L 1159 2956  Q 1366 3272 1645 3428  Q 1925 3584 2291 3584  Q 2894 3584 3203 3211  Q 3513 2838 3513 2113  z " id="DejaVuSans-6e" transform="scale(0.015625)" />
      <path d="M 678 2906  L 4684 2906  L 4684 2381  L 678 2381  L 678 2906  z M 678 1631  L 4684 1631  L 4684 1100  L 678 1100  L 678 1631  z " id="DejaVuSans-3d" transform="scale(0.015625)" />
      <path d="M 2419 4116  L 825 1625  L 2419 1625  L 2419 4116  z M 2253 4666  L 3047 4666  L 3047 1625  L 3713 1625  L 3713 1100  L 3047 1100  L 3047 0  L 2419 0  L 2419 1100  L 313 1100  L 313 1709  L 2253 4666  z " id="DejaVuSans-34" transform="scale(0.015625)" />
     </defs>
     <use xlink:href="#DejaVuSans-6e" />
     <use x="63.378906" xlink:href="#DejaVuSans-3d" />
     <use x="147.167969" xlink:href="#DejaVuSans-34" />
    </g>
    
    <g style="fill:#444443;" transform="translate(0 31.364305)scale(0.09 -0.09)">
     <defs>
      <path d="M 3122 3366  L 3122 2828  Q 2878 2963 2633 3030  Q 2388 3097 2138 3097  Q 1578 3097 1268 2742  Q 959 2388 959 1747  Q 959 1106 1268 751  Q 1578 397 2138 397  Q 2388 397 2633 464  Q 2878 531 3122 666  L 3122 134  Q 2881 22 2623 -34  Q 2366 -91 2075 -91  Q 1284 -91 818 406  Q 353 903 353 1747  Q 353 2603 823 3093  Q 1294 3584 2113 3584  Q 2378 3584 2631 3529  Q 2884 3475 3122 3366  z " id="DejaVuSans-63" transform="scale(0.015625)" />
      <path d="M 603 4863  L 1178 4863  L 1178 0  L 603 0  L 603 4863  z " id="DejaVuSans-6c" transform="scale(0.015625)" />
      <path d="M 2194 1759  Q 1497 1759 1228 1600  Q 959 1441 959 1056  Q 959 750 1161 570  Q 1363 391 1709 391  Q 2188 391 2477 730  Q 2766 1069 2766 1631  L 2766 1759  L 2194 1759  z M 3341 1997  L 3341 0  L 2766 0  L 2766 531  Q 2569 213 2275 61  Q 1981 -91 1556 -91  Q 1019 -91 701 211  Q 384 513 384 1019  Q 384 1609 779 1909  Q 1175 2209 1959 2209  L 2766 2209  L 2766 2266  Q 2766 2663 2505 2880  Q 2244 3097 1772 3097  Q 1472 3097 1187 3025  Q 903 2953 641 2809  L 641 3341  Q 956 3463 1253 3523  Q 1550 3584 1831 3584  Q 2591 3584 2966 3190  Q 3341 2797 3341 1997  z " id="DejaVuSans-61" transform="scale(0.015625)" />
      <path d="M 2834 3397  L 2834 2853  Q 2591 2978 2328 3040  Q 2066 3103 1784 3103  Q 1356 3103 1142 2972  Q 928 2841 928 2578  Q 928 2378 1081 2264  Q 1234 2150 1697 2047  L 1894 2003  Q 2506 1872 2764 1633  Q 3022 1394 3022 966  Q 3022 478 2636 193  Q 2250 -91 1575 -91  Q 1294 -91 989 -36  Q 684 19 347 128  L 347 722  Q 666 556 975 473  Q 1284 391 1588 391  Q 1994 391 2212 530  Q 2431 669 2431 922  Q 2431 1156 2273 1281  Q 2116 1406 1581 1522  L 1381 1569  Q 847 1681 609 1914  Q 372 2147 372 2553  Q 372 3047 722 3315  Q 1072 3584 1716 3584  Q 2034 3584 2315 3537  Q 2597 3491 2834 3397  z " id="DejaVuSans-73" transform="scale(0.015625)" />
      <path d="M 794 531  L 1825 531  L 1825 4091  L 703 3866  L 703 4441  L 1819 4666  L 2450 4666  L 2450 531  L 3481 531  L 3481 0  L 794 0  L 794 531  z " id="DejaVuSans-31" transform="scale(0.015625)" />
     </defs>
     <use xlink:href="#DejaVuSans-63" />
     <use x="54.980469" xlink:href="#DejaVuSans-6c" />
     <use x="82.763672" xlink:href="#DejaVuSans-61" />
     <use x="144.042969" xlink:href="#DejaVuSans-73" />
     <use x="196.142578" xlink:href="#DejaVuSans-73" />
     <use x="248.242188" xlink:href="#DejaVuSans-31" />
    </g>
   </g>
  </g>
 </g>
</svg></g>

<g class="edge" id="edge2">
<title>node4-&gt;leaf6</title>
<path d="M112.44,-134.95C112.3,-121.23 111.94,-85.17 111.7,-62.35" fill="none" stroke="#444443" stroke-width="0.3" />
<polygon fill="#444443" points="113.1,-62.24 111.66,-58.25 110.3,-62.27 113.1,-62.24" stroke="#444443" stroke-width="0.3" />
</g>

<g class="node" id="node2">
<title>node2</title>
<text fill="#444443" font-family="Helvetica,sans-Serif" font-size="12.00" text-anchor="start" x="87" y="-203.4">x_2@4.08</text>
</g>

<g class="edge" id="edge5">
<title>node2-&gt;node4</title>
<path d="M116.13,-199.69C115.44,-188.85 113.96,-165.46 113.12,-152.2" fill="none" stroke="#444443" stroke-width="0.3" />
<polygon fill="#444443" points="114.51,-152.02 112.86,-148.12 111.71,-152.2 114.51,-152.02" stroke="#444443" stroke-width="0.3" />
</g>

<g class="node" id="node5">
<title>node7</title>
<text fill="#444443" font-family="Helvetica,sans-Serif" font-size="12.00" text-anchor="start" x="161" y="-203.4">x_2@2.57</text>
</g>


<g class="node" id="node10">
<title>leaf3</title>
<polygon fill="none" points="67,-183 0,-183 0,-100 67,-100 67,-183" stroke="#444443" stroke-width="0" />
<svg height="75px" preserveAspectRatio="xMinYMin meet" version="1.1" viewBox="0 0 78.52 100.449144" width="59px" x="4.5" y="-178.5">
 <metadata>
  <rdf:RDF>
   <ns2:Work>
    <dc:type rdf:resource="http://purl.org/dc/dcmitype/StillImage" />
    <dc:date>2023-03-07T21:00:00.935298</dc:date>
    <dc:format>image/svg+xml</dc:format>
    <dc:creator>
     <ns2:Agent>
      <dc:title>Matplotlib v3.4.1, https://matplotlib.org/</dc:title>
     </ns2:Agent>
    </dc:creator>
   </ns2:Work>
  </rdf:RDF>
 </metadata>
 <defs>
  <style type="text/css">*{stroke-linecap:butt;stroke-linejoin:round;}</style>
 </defs>
 <g id="figure_1">
  <g id="patch_1">
   <path d="M -0 100.449144  L 78.52 100.449144  L 78.52 -0  L -0 -0  z " style="fill:none;" />
  </g>
  <g id="axes_1">
   <g id="patch_2">
    <path d="M 78.52 39.26  C 78.52 34.104424 77.504464 28.99898 75.53151 24.235848  C 73.558557 19.472717 70.666555 15.14453 67.021012 11.498988  C 63.37547 7.853445 59.047283 4.961443 54.284152 2.98849  C 49.52102 1.015536 44.415576 0 39.26 0  C 34.104424 0 28.99898 1.015536 24.235848 2.98849  C 19.472717 4.961443 15.14453 7.853445 11.498988 11.498988  C 7.853445 15.14453 4.961443 19.472717 2.98849 24.235848  C 1.015536 28.99898 0 34.104424 0 39.26  C 0 44.415576 1.015536 49.52102 2.98849 54.284152  C 4.961443 59.047283 7.853445 63.37547 11.498988 67.021012  C 15.14453 70.666555 19.472717 73.558557 24.235848 75.53151  C 28.99898 77.504464 34.104424 78.52 39.26 78.52  C 44.415576 78.52 49.52102 77.504464 54.284152 75.53151  C 59.047283 73.558557 63.37547 70.666555 67.021012 67.021012  C 70.666555 63.37547 73.558557 59.047283 75.53151 54.284152  C 77.504464 49.52102 78.52 44.415576 78.52 39.26  M 39.26 39.26  M 78.52 39.26  z " style="fill:#008fff;stroke:#444443;stroke-linejoin:miter;stroke-width:0.5;" />
   </g>
   <g id="text_1">
    
    <g style="fill:#444443;" transform="translate(26.911016 88.499394)scale(0.09 -0.09)">
     <defs>
      <path d="M 3513 2113  L 3513 0  L 2938 0  L 2938 2094  Q 2938 2591 2744 2837  Q 2550 3084 2163 3084  Q 1697 3084 1428 2787  Q 1159 2491 1159 1978  L 1159 0  L 581 0  L 581 3500  L 1159 3500  L 1159 2956  Q 1366 3272 1645 3428  Q 1925 3584 2291 3584  Q 2894 3584 3203 3211  Q 3513 2838 3513 2113  z " id="DejaVuSans-6e" transform="scale(0.015625)" />
      <path d="M 678 2906  L 4684 2906  L 4684 2381  L 678 2381  L 678 2906  z M 678 1631  L 4684 1631  L 4684 1100  L 678 1100  L 678 1631  z " id="DejaVuSans-3d" transform="scale(0.015625)" />
      <path d="M 2113 2584  Q 1688 2584 1439 2293  Q 1191 2003 1191 1497  Q 1191 994 1439 701  Q 1688 409 2113 409  Q 2538 409 2786 701  Q 3034 994 3034 1497  Q 3034 2003 2786 2293  Q 2538 2584 2113 2584  z M 3366 4563  L 3366 3988  Q 3128 4100 2886 4159  Q 2644 4219 2406 4219  Q 1781 4219 1451 3797  Q 1122 3375 1075 2522  Q 1259 2794 1537 2939  Q 1816 3084 2150 3084  Q 2853 3084 3261 2657  Q 3669 2231 3669 1497  Q 3669 778 3244 343  Q 2819 -91 2113 -91  Q 1303 -91 875 529  Q 447 1150 447 2328  Q 447 3434 972 4092  Q 1497 4750 2381 4750  Q 2619 4750 2861 4703  Q 3103 4656 3366 4563  z " id="DejaVuSans-36" transform="scale(0.015625)" />
      <path d="M 525 4666  L 3525 4666  L 3525 4397  L 1831 0  L 1172 0  L 2766 4134  L 525 4134  L 525 4666  z " id="DejaVuSans-37" transform="scale(0.015625)" />
     </defs>
     <use xlink:href="#DejaVuSans-6e" />
     <use x="63.378906" xlink:href="#DejaVuSans-3d" />
     <use x="147.167969" xlink:href="#DejaVuSans-36" />
     <use x="210.791016" xlink:href="#DejaVuSans-37" />
    </g>
    
    <g style="fill:#444443;" transform="translate(25.226328 98.577425)scale(0.09 -0.09)">
     <defs>
      <path d="M 3122 3366  L 3122 2828  Q 2878 2963 2633 3030  Q 2388 3097 2138 3097  Q 1578 3097 1268 2742  Q 959 2388 959 1747  Q 959 1106 1268 751  Q 1578 397 2138 397  Q 2388 397 2633 464  Q 2878 531 3122 666  L 3122 134  Q 2881 22 2623 -34  Q 2366 -91 2075 -91  Q 1284 -91 818 406  Q 353 903 353 1747  Q 353 2603 823 3093  Q 1294 3584 2113 3584  Q 2378 3584 2631 3529  Q 2884 3475 3122 3366  z " id="DejaVuSans-63" transform="scale(0.015625)" />
      <path d="M 603 4863  L 1178 4863  L 1178 0  L 603 0  L 603 4863  z " id="DejaVuSans-6c" transform="scale(0.015625)" />
      <path d="M 2194 1759  Q 1497 1759 1228 1600  Q 959 1441 959 1056  Q 959 750 1161 570  Q 1363 391 1709 391  Q 2188 391 2477 730  Q 2766 1069 2766 1631  L 2766 1759  L 2194 1759  z M 3341 1997  L 3341 0  L 2766 0  L 2766 531  Q 2569 213 2275 61  Q 1981 -91 1556 -91  Q 1019 -91 701 211  Q 384 513 384 1019  Q 384 1609 779 1909  Q 1175 2209 1959 2209  L 2766 2209  L 2766 2266  Q 2766 2663 2505 2880  Q 2244 3097 1772 3097  Q 1472 3097 1187 3025  Q 903 2953 641 2809  L 641 3341  Q 956 3463 1253 3523  Q 1550 3584 1831 3584  Q 2591 3584 2966 3190  Q 3341 2797 3341 1997  z " id="DejaVuSans-61" transform="scale(0.015625)" />
      <path d="M 2834 3397  L 2834 2853  Q 2591 2978 2328 3040  Q 2066 3103 1784 3103  Q 1356 3103 1142 2972  Q 928 2841 928 2578  Q 928 2378 1081 2264  Q 1234 2150 1697 2047  L 1894 2003  Q 2506 1872 2764 1633  Q 3022 1394 3022 966  Q 3022 478 2636 193  Q 2250 -91 1575 -91  Q 1294 -91 989 -36  Q 684 19 347 128  L 347 722  Q 666 556 975 473  Q 1284 391 1588 391  Q 1994 391 2212 530  Q 2431 669 2431 922  Q 2431 1156 2273 1281  Q 2116 1406 1581 1522  L 1381 1569  Q 847 1681 609 1914  Q 372 2147 372 2553  Q 372 3047 722 3315  Q 1072 3584 1716 3584  Q 2034 3584 2315 3537  Q 2597 3491 2834 3397  z " id="DejaVuSans-73" transform="scale(0.015625)" />
      <path d="M 2597 2516  Q 3050 2419 3304 2112  Q 3559 1806 3559 1356  Q 3559 666 3084 287  Q 2609 -91 1734 -91  Q 1441 -91 1130 -33  Q 819 25 488 141  L 488 750  Q 750 597 1062 519  Q 1375 441 1716 441  Q 2309 441 2620 675  Q 2931 909 2931 1356  Q 2931 1769 2642 2001  Q 2353 2234 1838 2234  L 1294 2234  L 1294 2753  L 1863 2753  Q 2328 2753 2575 2939  Q 2822 3125 2822 3475  Q 2822 3834 2567 4026  Q 2313 4219 1838 4219  Q 1578 4219 1281 4162  Q 984 4106 628 3988  L 628 4550  Q 988 4650 1302 4700  Q 1616 4750 1894 4750  Q 2613 4750 3031 4423  Q 3450 4097 3450 3541  Q 3450 3153 3228 2886  Q 3006 2619 2597 2516  z " id="DejaVuSans-33" transform="scale(0.015625)" />
     </defs>
     <use xlink:href="#DejaVuSans-63" />
     <use x="54.980469" xlink:href="#DejaVuSans-6c" />
     <use x="82.763672" xlink:href="#DejaVuSans-61" />
     <use x="144.042969" xlink:href="#DejaVuSans-73" />
     <use x="196.142578" xlink:href="#DejaVuSans-73" />
     <use x="248.242188" xlink:href="#DejaVuSans-33" />
    </g>
   </g>
  </g>
 </g>
</svg></g>

<g class="edge" id="edge4">
<title>node2-&gt;leaf3</title>
<path d="M109.13,-199.91C100.36,-193.25 85.04,-181.62 70.47,-170.57" fill="none" stroke="#444443" stroke-width="0.3" />
<polygon fill="#444443" points="71.22,-169.37 67.19,-168.07 69.53,-171.6 71.22,-169.37" stroke="#444443" stroke-width="0.3" />
</g>

<g class="node" id="node3">
<title>node8</title>
<text fill="#444443" font-family="Helvetica,sans-Serif" font-size="12.00" text-anchor="start" x="161" y="-138.4">x_1@0.10</text>
</g>

<g class="node" id="node4">
<title>node11</title>
<text fill="#444443" font-family="Helvetica,sans-Serif" font-size="12.00" text-anchor="start" x="236" y="-138.4">x_1@0.21</text>
</g>


<g class="node" id="node11">
<title>leaf9</title>
<polygon fill="none" points="162,-57 133,-57 133,-26 162,-26 162,-57" stroke="#444443" stroke-width="0" />
<svg height="23px" preserveAspectRatio="xMinYMin meet" version="1.1" viewBox="0 0 28.067344 30.723384" width="21px" x="137.5" y="-52.5">
 <metadata>
  <rdf:RDF>
   <ns2:Work>
    <dc:type rdf:resource="http://purl.org/dc/dcmitype/StillImage" />
    <dc:date>2023-03-07T21:00:01.094017</dc:date>
    <dc:format>image/svg+xml</dc:format>
    <dc:creator>
     <ns2:Agent>
      <dc:title>Matplotlib v3.4.1, https://matplotlib.org/</dc:title>
     </ns2:Agent>
    </dc:creator>
   </ns2:Work>
  </rdf:RDF>
 </metadata>
 <defs>
  <style type="text/css">*{stroke-linecap:butt;stroke-linejoin:round;}</style>
 </defs>
 <g id="figure_1">
  <g id="patch_1">
   <path d="M 0 30.723384  L 28.067344 30.723384  L 28.067344 0  L 0 0  z " style="fill:none;" />
  </g>
  <g id="axes_1">
   <g id="patch_2">
    <path d="M 19.771672 5.738  C 19.771672 4.216771 19.166722 2.756292 18.091051 1.680621  C 17.01538 0.60495 15.5549 0 14.033672 0  C 12.512443 0 11.051964 0.60495 9.976293 1.680621  C 8.900622 2.756292 8.295672 4.216771 8.295672 5.738  L 14.033672 5.738  L 19.771672 5.738  z " style="fill:#ff0028;stroke:#444443;stroke-linejoin:miter;stroke-width:0.5;" />
   </g>
   <g id="patch_3">
    <path d="M 8.295672 5.738  C 8.295672 5.738 8.295672 5.738 8.295672 5.738  L 14.033672 5.738  L 8.295672 5.738  z " style="fill:#5bff00;stroke:#444443;stroke-linejoin:miter;stroke-width:0.5;" />
   </g>
   <g id="patch_4">
    <path d="M 8.295672 5.738  C 8.295672 7.259229 8.900622 8.719708 9.976293 9.795379  C 11.051964 10.87105 12.512443 11.476 14.033672 11.476  C 15.5549 11.476 17.01538 10.87105 18.091051 9.795379  C 19.166722 8.719708 19.771672 7.259229 19.771672 5.738  L 14.033672 5.738  L 8.295672 5.738  z " style="fill:#008fff;stroke:#444443;stroke-linejoin:miter;stroke-width:0.5;" />
   </g>
   <g id="patch_5">
    <path d="M 19.771672 5.738  C 19.771672 5.738 19.771672 5.738 19.771672 5.738  L 14.033672 5.738  L 19.771672 5.738  z " style="fill:#ff00bf;stroke:#444443;stroke-linejoin:miter;stroke-width:0.5;" />
   </g>
   <g id="text_1">
    
    <g style="fill:#444443;" transform="translate(4.547812 18.773634)scale(0.09 -0.09)">
     <defs>
      <path d="M 3513 2113  L 3513 0  L 2938 0  L 2938 2094  Q 2938 2591 2744 2837  Q 2550 3084 2163 3084  Q 1697 3084 1428 2787  Q 1159 2491 1159 1978  L 1159 0  L 581 0  L 581 3500  L 1159 3500  L 1159 2956  Q 1366 3272 1645 3428  Q 1925 3584 2291 3584  Q 2894 3584 3203 3211  Q 3513 2838 3513 2113  z " id="DejaVuSans-6e" transform="scale(0.015625)" />
      <path d="M 678 2906  L 4684 2906  L 4684 2381  L 678 2381  L 678 2906  z M 678 1631  L 4684 1631  L 4684 1100  L 678 1100  L 678 1631  z " id="DejaVuSans-3d" transform="scale(0.015625)" />
      <path d="M 1228 531  L 3431 531  L 3431 0  L 469 0  L 469 531  Q 828 903 1448 1529  Q 2069 2156 2228 2338  Q 2531 2678 2651 2914  Q 2772 3150 2772 3378  Q 2772 3750 2511 3984  Q 2250 4219 1831 4219  Q 1534 4219 1204 4116  Q 875 4013 500 3803  L 500 4441  Q 881 4594 1212 4672  Q 1544 4750 1819 4750  Q 2544 4750 2975 4387  Q 3406 4025 3406 3419  Q 3406 3131 3298 2873  Q 3191 2616 2906 2266  Q 2828 2175 2409 1742  Q 1991 1309 1228 531  z " id="DejaVuSans-32" transform="scale(0.015625)" />
     </defs>
     <use xlink:href="#DejaVuSans-6e" />
     <use x="63.378906" xlink:href="#DejaVuSans-3d" />
     <use x="147.167969" xlink:href="#DejaVuSans-32" />
    </g>
    
    <g style="fill:#444443;" transform="translate(0 28.851665)scale(0.09 -0.09)">
     <defs>
      <path d="M 3122 3366  L 3122 2828  Q 2878 2963 2633 3030  Q 2388 3097 2138 3097  Q 1578 3097 1268 2742  Q 959 2388 959 1747  Q 959 1106 1268 751  Q 1578 397 2138 397  Q 2388 397 2633 464  Q 2878 531 3122 666  L 3122 134  Q 2881 22 2623 -34  Q 2366 -91 2075 -91  Q 1284 -91 818 406  Q 353 903 353 1747  Q 353 2603 823 3093  Q 1294 3584 2113 3584  Q 2378 3584 2631 3529  Q 2884 3475 3122 3366  z " id="DejaVuSans-63" transform="scale(0.015625)" />
      <path d="M 603 4863  L 1178 4863  L 1178 0  L 603 0  L 603 4863  z " id="DejaVuSans-6c" transform="scale(0.015625)" />
      <path d="M 2194 1759  Q 1497 1759 1228 1600  Q 959 1441 959 1056  Q 959 750 1161 570  Q 1363 391 1709 391  Q 2188 391 2477 730  Q 2766 1069 2766 1631  L 2766 1759  L 2194 1759  z M 3341 1997  L 3341 0  L 2766 0  L 2766 531  Q 2569 213 2275 61  Q 1981 -91 1556 -91  Q 1019 -91 701 211  Q 384 513 384 1019  Q 384 1609 779 1909  Q 1175 2209 1959 2209  L 2766 2209  L 2766 2266  Q 2766 2663 2505 2880  Q 2244 3097 1772 3097  Q 1472 3097 1187 3025  Q 903 2953 641 2809  L 641 3341  Q 956 3463 1253 3523  Q 1550 3584 1831 3584  Q 2591 3584 2966 3190  Q 3341 2797 3341 1997  z " id="DejaVuSans-61" transform="scale(0.015625)" />
      <path d="M 2834 3397  L 2834 2853  Q 2591 2978 2328 3040  Q 2066 3103 1784 3103  Q 1356 3103 1142 2972  Q 928 2841 928 2578  Q 928 2378 1081 2264  Q 1234 2150 1697 2047  L 1894 2003  Q 2506 1872 2764 1633  Q 3022 1394 3022 966  Q 3022 478 2636 193  Q 2250 -91 1575 -91  Q 1294 -91 989 -36  Q 684 19 347 128  L 347 722  Q 666 556 975 473  Q 1284 391 1588 391  Q 1994 391 2212 530  Q 2431 669 2431 922  Q 2431 1156 2273 1281  Q 2116 1406 1581 1522  L 1381 1569  Q 847 1681 609 1914  Q 372 2147 372 2553  Q 372 3047 722 3315  Q 1072 3584 1716 3584  Q 2034 3584 2315 3537  Q 2597 3491 2834 3397  z " id="DejaVuSans-73" transform="scale(0.015625)" />
      <path d="M 794 531  L 1825 531  L 1825 4091  L 703 3866  L 703 4441  L 1819 4666  L 2450 4666  L 2450 531  L 3481 531  L 3481 0  L 794 0  L 794 531  z " id="DejaVuSans-31" transform="scale(0.015625)" />
     </defs>
     <use xlink:href="#DejaVuSans-63" />
     <use x="54.980469" xlink:href="#DejaVuSans-6c" />
     <use x="82.763672" xlink:href="#DejaVuSans-61" />
     <use x="144.042969" xlink:href="#DejaVuSans-73" />
     <use x="196.142578" xlink:href="#DejaVuSans-73" />
     <use x="248.242188" xlink:href="#DejaVuSans-31" />
    </g>
   </g>
  </g>
 </g>
</svg></g>

<g class="edge" id="edge7">
<title>node8-&gt;leaf9</title>
<path d="M188.06,-134.95C181.92,-120.94 165.56,-83.65 155.59,-60.94" fill="none" stroke="#444443" stroke-width="0.3" />
<polygon fill="#444443" points="156.82,-60.25 153.93,-57.15 154.25,-61.38 156.82,-60.25" stroke="#444443" stroke-width="0.3" />
</g>

<g class="node" id="node12">
<title>leaf10</title>
<polygon fill="none" points="243,-83 176,-83 176,0 243,0 243,-83" stroke="#444443" stroke-width="0" />
<svg height="75px" preserveAspectRatio="xMinYMin meet" version="1.1" viewBox="0 0 78.52 100.449144" width="59px" x="180.5" y="-78.5">
 <metadata>
  <rdf:RDF>
   <ns2:Work>
    <dc:type rdf:resource="http://purl.org/dc/dcmitype/StillImage" />
    <dc:date>2023-03-07T21:00:01.139664</dc:date>
    <dc:format>image/svg+xml</dc:format>
    <dc:creator>
     <ns2:Agent>
      <dc:title>Matplotlib v3.4.1, https://matplotlib.org/</dc:title>
     </ns2:Agent>
    </dc:creator>
   </ns2:Work>
  </rdf:RDF>
 </metadata>
 <defs>
  <style type="text/css">*{stroke-linecap:butt;stroke-linejoin:round;}</style>
 </defs>
 <g id="figure_1">
  <g id="patch_1">
   <path d="M -0 100.449144  L 78.52 100.449144  L 78.52 -0  L -0 -0  z " style="fill:none;" />
  </g>
  <g id="axes_1">
   <g id="patch_2">
    <path d="M 78.52 39.26  C 78.52 34.104424 77.504464 28.99898 75.53151 24.235848  C 73.558557 19.472717 70.666555 15.14453 67.021012 11.498988  C 63.37547 7.853445 59.047283 4.961443 54.284152 2.98849  C 49.52102 1.015536 44.415576 0 39.26 0  C 34.104424 0 28.99898 1.015536 24.235848 2.98849  C 19.472717 4.961443 15.14453 7.853445 11.498988 11.498988  C 7.853445 15.14453 4.961443 19.472717 2.98849 24.235848  C 1.015536 28.99898 0 34.104424 0 39.26  C 0 44.415576 1.015536 49.52102 2.98849 54.284152  C 4.961443 59.047283 7.853445 63.37547 11.498988 67.021012  C 15.14453 70.666555 19.472717 73.558557 24.235848 75.53151  C 28.99898 77.504464 34.104424 78.52 39.26 78.52  C 44.415576 78.52 49.52102 77.504464 54.284152 75.53151  C 59.047283 73.558557 63.37547 70.666555 67.021012 67.021012  C 70.666555 63.37547 73.558557 59.047283 75.53151 54.284152  C 77.504464 49.52102 78.52 44.415576 78.52 39.26  M 39.26 39.26  M 78.52 39.26  z " style="fill:#5bff00;stroke:#444443;stroke-linejoin:miter;stroke-width:0.5;" />
   </g>
   <g id="text_1">
    
    <g style="fill:#444443;" transform="translate(26.911016 88.499394)scale(0.09 -0.09)">
     <defs>
      <path d="M 3513 2113  L 3513 0  L 2938 0  L 2938 2094  Q 2938 2591 2744 2837  Q 2550 3084 2163 3084  Q 1697 3084 1428 2787  Q 1159 2491 1159 1978  L 1159 0  L 581 0  L 581 3500  L 1159 3500  L 1159 2956  Q 1366 3272 1645 3428  Q 1925 3584 2291 3584  Q 2894 3584 3203 3211  Q 3513 2838 3513 2113  z " id="DejaVuSans-6e" transform="scale(0.015625)" />
      <path d="M 678 2906  L 4684 2906  L 4684 2381  L 678 2381  L 678 2906  z M 678 1631  L 4684 1631  L 4684 1100  L 678 1100  L 678 1631  z " id="DejaVuSans-3d" transform="scale(0.015625)" />
      <path d="M 525 4666  L 3525 4666  L 3525 4397  L 1831 0  L 1172 0  L 2766 4134  L 525 4134  L 525 4666  z " id="DejaVuSans-37" transform="scale(0.015625)" />
      <path d="M 2597 2516  Q 3050 2419 3304 2112  Q 3559 1806 3559 1356  Q 3559 666 3084 287  Q 2609 -91 1734 -91  Q 1441 -91 1130 -33  Q 819 25 488 141  L 488 750  Q 750 597 1062 519  Q 1375 441 1716 441  Q 2309 441 2620 675  Q 2931 909 2931 1356  Q 2931 1769 2642 2001  Q 2353 2234 1838 2234  L 1294 2234  L 1294 2753  L 1863 2753  Q 2328 2753 2575 2939  Q 2822 3125 2822 3475  Q 2822 3834 2567 4026  Q 2313 4219 1838 4219  Q 1578 4219 1281 4162  Q 984 4106 628 3988  L 628 4550  Q 988 4650 1302 4700  Q 1616 4750 1894 4750  Q 2613 4750 3031 4423  Q 3450 4097 3450 3541  Q 3450 3153 3228 2886  Q 3006 2619 2597 2516  z " id="DejaVuSans-33" transform="scale(0.015625)" />
     </defs>
     <use xlink:href="#DejaVuSans-6e" />
     <use x="63.378906" xlink:href="#DejaVuSans-3d" />
     <use x="147.167969" xlink:href="#DejaVuSans-37" />
     <use x="210.791016" xlink:href="#DejaVuSans-33" />
    </g>
    
    <g style="fill:#444443;" transform="translate(25.226328 98.577425)scale(0.09 -0.09)">
     <defs>
      <path d="M 3122 3366  L 3122 2828  Q 2878 2963 2633 3030  Q 2388 3097 2138 3097  Q 1578 3097 1268 2742  Q 959 2388 959 1747  Q 959 1106 1268 751  Q 1578 397 2138 397  Q 2388 397 2633 464  Q 2878 531 3122 666  L 3122 134  Q 2881 22 2623 -34  Q 2366 -91 2075 -91  Q 1284 -91 818 406  Q 353 903 353 1747  Q 353 2603 823 3093  Q 1294 3584 2113 3584  Q 2378 3584 2631 3529  Q 2884 3475 3122 3366  z " id="DejaVuSans-63" transform="scale(0.015625)" />
      <path d="M 603 4863  L 1178 4863  L 1178 0  L 603 0  L 603 4863  z " id="DejaVuSans-6c" transform="scale(0.015625)" />
      <path d="M 2194 1759  Q 1497 1759 1228 1600  Q 959 1441 959 1056  Q 959 750 1161 570  Q 1363 391 1709 391  Q 2188 391 2477 730  Q 2766 1069 2766 1631  L 2766 1759  L 2194 1759  z M 3341 1997  L 3341 0  L 2766 0  L 2766 531  Q 2569 213 2275 61  Q 1981 -91 1556 -91  Q 1019 -91 701 211  Q 384 513 384 1019  Q 384 1609 779 1909  Q 1175 2209 1959 2209  L 2766 2209  L 2766 2266  Q 2766 2663 2505 2880  Q 2244 3097 1772 3097  Q 1472 3097 1187 3025  Q 903 2953 641 2809  L 641 3341  Q 956 3463 1253 3523  Q 1550 3584 1831 3584  Q 2591 3584 2966 3190  Q 3341 2797 3341 1997  z " id="DejaVuSans-61" transform="scale(0.015625)" />
      <path d="M 2834 3397  L 2834 2853  Q 2591 2978 2328 3040  Q 2066 3103 1784 3103  Q 1356 3103 1142 2972  Q 928 2841 928 2578  Q 928 2378 1081 2264  Q 1234 2150 1697 2047  L 1894 2003  Q 2506 1872 2764 1633  Q 3022 1394 3022 966  Q 3022 478 2636 193  Q 2250 -91 1575 -91  Q 1294 -91 989 -36  Q 684 19 347 128  L 347 722  Q 666 556 975 473  Q 1284 391 1588 391  Q 1994 391 2212 530  Q 2431 669 2431 922  Q 2431 1156 2273 1281  Q 2116 1406 1581 1522  L 1381 1569  Q 847 1681 609 1914  Q 372 2147 372 2553  Q 372 3047 722 3315  Q 1072 3584 1716 3584  Q 2034 3584 2315 3537  Q 2597 3491 2834 3397  z " id="DejaVuSans-73" transform="scale(0.015625)" />
      <path d="M 1228 531  L 3431 531  L 3431 0  L 469 0  L 469 531  Q 828 903 1448 1529  Q 2069 2156 2228 2338  Q 2531 2678 2651 2914  Q 2772 3150 2772 3378  Q 2772 3750 2511 3984  Q 2250 4219 1831 4219  Q 1534 4219 1204 4116  Q 875 4013 500 3803  L 500 4441  Q 881 4594 1212 4672  Q 1544 4750 1819 4750  Q 2544 4750 2975 4387  Q 3406 4025 3406 3419  Q 3406 3131 3298 2873  Q 3191 2616 2906 2266  Q 2828 2175 2409 1742  Q 1991 1309 1228 531  z " id="DejaVuSans-32" transform="scale(0.015625)" />
     </defs>
     <use xlink:href="#DejaVuSans-63" />
     <use x="54.980469" xlink:href="#DejaVuSans-6c" />
     <use x="82.763672" xlink:href="#DejaVuSans-61" />
     <use x="144.042969" xlink:href="#DejaVuSans-73" />
     <use x="196.142578" xlink:href="#DejaVuSans-73" />
     <use x="248.242188" xlink:href="#DejaVuSans-32" />
    </g>
   </g>
  </g>
 </g>
</svg></g>

<g class="edge" id="edge8">
<title>node8-&gt;leaf10</title>
<path d="M191.58,-134.95C193.37,-125.69 197.14,-106.26 200.76,-87.59" fill="none" stroke="#444443" stroke-width="0.3" />
<polygon fill="#444443" points="202.19,-87.56 201.58,-83.37 199.44,-87.03 202.19,-87.56" stroke="#444443" stroke-width="0.3" />
</g>

<g class="node" id="node13">
<title>leaf12</title>
<polygon fill="none" points="283,-65.5 250,-65.5 250,-17.5 283,-17.5 283,-65.5" stroke="#444443" stroke-width="0" />
<svg height="40px" preserveAspectRatio="xMinYMin meet" version="1.1" viewBox="0 0 33.219995 53.337143" width="25px" x="254.5" y="-61.5">
 <metadata>
  <rdf:RDF>
   <ns2:Work>
    <dc:type rdf:resource="http://purl.org/dc/dcmitype/StillImage" />
    <dc:date>2023-03-07T21:00:01.191878</dc:date>
    <dc:format>image/svg+xml</dc:format>
    <dc:creator>
     <ns2:Agent>
      <dc:title>Matplotlib v3.4.1, https://matplotlib.org/</dc:title>
     </ns2:Agent>
    </dc:creator>
   </ns2:Work>
  </rdf:RDF>
 </metadata>
 <defs>
  <style type="text/css">*{stroke-linecap:butt;stroke-linejoin:round;}</style>
 </defs>
 <g id="figure_1">
  <g id="patch_1">
   <path d="M -0 53.337143  L 33.219995 53.337143  L 33.219995 0  L -0 0  z " style="fill:none;" />
  </g>
  <g id="axes_1">
   <g id="patch_2">
    <path d="M 33.219995 16.609999  C 33.219995 13.768226 32.490705 10.973437 31.102154 8.494001  C 29.713603 6.014565 27.711707 3.932469 25.288697 2.447646  C 22.865687 0.962824 20.101684 0.124373 17.262101 0.012805  C 14.422519 -0.098763 11.601253 0.520242 9.069214 1.81038  C 6.537175 3.100518 4.37809 5.019128 2.799286 7.381976  C 1.220481 9.744824 0.274161 12.473779 0.051198 15.306792  C -0.171765 18.139805 0.336 20.983198 1.525736 23.563935  C 2.715472 26.144673 4.547837 28.377417 6.84688 30.04777  L 16.609995 16.609999  L 33.219995 16.609999  z " style="fill:#ff0028;stroke:#444443;stroke-linejoin:miter;stroke-width:0.5;" />
   </g>
   <g id="patch_3">
    <path d="M 6.84688 30.04777  C 7.550841 30.559228 8.293906 31.014579 9.069211 31.409616  C 9.844515 31.804654 10.649664 32.138158 11.47722 32.407047  L 16.609995 16.609999  L 6.84688 30.04777  z " style="fill:#5bff00;stroke:#444443;stroke-linejoin:miter;stroke-width:0.5;" />
   </g>
   <g id="patch_4">
    <path d="M 11.47722 32.407047  C 14.812711 33.490814 18.407274 33.490815 21.742765 32.407049  C 25.078256 31.323282 27.986319 29.210452 30.047766 26.373114  L 16.609995 16.609999  L 11.47722 32.407047  z " style="fill:#008fff;stroke:#444443;stroke-linejoin:miter;stroke-width:0.5;" />
   </g>
   <g id="patch_5">
    <path d="M 30.047766 26.373114  C 31.072255 24.963027 31.868437 23.40043 32.407043 21.742773  C 32.945649 20.085116 33.219995 18.352965 33.219995 16.610001  L 16.609995 16.609999  L 30.047766 26.373114  z " style="fill:#ff00bf;stroke:#444443;stroke-linejoin:miter;stroke-width:0.5;" />
   </g>
   <g id="text_1">
    
    <g style="fill:#444443;" transform="translate(4.261011 41.387393)scale(0.09 -0.09)">
     <defs>
      <path d="M 3513 2113  L 3513 0  L 2938 0  L 2938 2094  Q 2938 2591 2744 2837  Q 2550 3084 2163 3084  Q 1697 3084 1428 2787  Q 1159 2491 1159 1978  L 1159 0  L 581 0  L 581 3500  L 1159 3500  L 1159 2956  Q 1366 3272 1645 3428  Q 1925 3584 2291 3584  Q 2894 3584 3203 3211  Q 3513 2838 3513 2113  z " id="DejaVuSans-6e" transform="scale(0.015625)" />
      <path d="M 678 2906  L 4684 2906  L 4684 2381  L 678 2381  L 678 2906  z M 678 1631  L 4684 1631  L 4684 1100  L 678 1100  L 678 1631  z " id="DejaVuSans-3d" transform="scale(0.015625)" />
      <path d="M 1228 531  L 3431 531  L 3431 0  L 469 0  L 469 531  Q 828 903 1448 1529  Q 2069 2156 2228 2338  Q 2531 2678 2651 2914  Q 2772 3150 2772 3378  Q 2772 3750 2511 3984  Q 2250 4219 1831 4219  Q 1534 4219 1204 4116  Q 875 4013 500 3803  L 500 4441  Q 881 4594 1212 4672  Q 1544 4750 1819 4750  Q 2544 4750 2975 4387  Q 3406 4025 3406 3419  Q 3406 3131 3298 2873  Q 3191 2616 2906 2266  Q 2828 2175 2409 1742  Q 1991 1309 1228 531  z " id="DejaVuSans-32" transform="scale(0.015625)" />
      <path d="M 2034 4250  Q 1547 4250 1301 3770  Q 1056 3291 1056 2328  Q 1056 1369 1301 889  Q 1547 409 2034 409  Q 2525 409 2770 889  Q 3016 1369 3016 2328  Q 3016 3291 2770 3770  Q 2525 4250 2034 4250  z M 2034 4750  Q 2819 4750 3233 4129  Q 3647 3509 3647 2328  Q 3647 1150 3233 529  Q 2819 -91 2034 -91  Q 1250 -91 836 529  Q 422 1150 422 2328  Q 422 3509 836 4129  Q 1250 4750 2034 4750  z " id="DejaVuSans-30" transform="scale(0.015625)" />
     </defs>
     <use xlink:href="#DejaVuSans-6e" />
     <use x="63.378906" xlink:href="#DejaVuSans-3d" />
     <use x="147.167969" xlink:href="#DejaVuSans-32" />
     <use x="210.791016" xlink:href="#DejaVuSans-30" />
    </g>
    
    <g style="fill:#444443;" transform="translate(2.576323 51.465424)scale(0.09 -0.09)">
     <defs>
      <path d="M 3122 3366  L 3122 2828  Q 2878 2963 2633 3030  Q 2388 3097 2138 3097  Q 1578 3097 1268 2742  Q 959 2388 959 1747  Q 959 1106 1268 751  Q 1578 397 2138 397  Q 2388 397 2633 464  Q 2878 531 3122 666  L 3122 134  Q 2881 22 2623 -34  Q 2366 -91 2075 -91  Q 1284 -91 818 406  Q 353 903 353 1747  Q 353 2603 823 3093  Q 1294 3584 2113 3584  Q 2378 3584 2631 3529  Q 2884 3475 3122 3366  z " id="DejaVuSans-63" transform="scale(0.015625)" />
      <path d="M 603 4863  L 1178 4863  L 1178 0  L 603 0  L 603 4863  z " id="DejaVuSans-6c" transform="scale(0.015625)" />
      <path d="M 2194 1759  Q 1497 1759 1228 1600  Q 959 1441 959 1056  Q 959 750 1161 570  Q 1363 391 1709 391  Q 2188 391 2477 730  Q 2766 1069 2766 1631  L 2766 1759  L 2194 1759  z M 3341 1997  L 3341 0  L 2766 0  L 2766 531  Q 2569 213 2275 61  Q 1981 -91 1556 -91  Q 1019 -91 701 211  Q 384 513 384 1019  Q 384 1609 779 1909  Q 1175 2209 1959 2209  L 2766 2209  L 2766 2266  Q 2766 2663 2505 2880  Q 2244 3097 1772 3097  Q 1472 3097 1187 3025  Q 903 2953 641 2809  L 641 3341  Q 956 3463 1253 3523  Q 1550 3584 1831 3584  Q 2591 3584 2966 3190  Q 3341 2797 3341 1997  z " id="DejaVuSans-61" transform="scale(0.015625)" />
      <path d="M 2834 3397  L 2834 2853  Q 2591 2978 2328 3040  Q 2066 3103 1784 3103  Q 1356 3103 1142 2972  Q 928 2841 928 2578  Q 928 2378 1081 2264  Q 1234 2150 1697 2047  L 1894 2003  Q 2506 1872 2764 1633  Q 3022 1394 3022 966  Q 3022 478 2636 193  Q 2250 -91 1575 -91  Q 1294 -91 989 -36  Q 684 19 347 128  L 347 722  Q 666 556 975 473  Q 1284 391 1588 391  Q 1994 391 2212 530  Q 2431 669 2431 922  Q 2431 1156 2273 1281  Q 2116 1406 1581 1522  L 1381 1569  Q 847 1681 609 1914  Q 372 2147 372 2553  Q 372 3047 722 3315  Q 1072 3584 1716 3584  Q 2034 3584 2315 3537  Q 2597 3491 2834 3397  z " id="DejaVuSans-73" transform="scale(0.015625)" />
      <path d="M 794 531  L 1825 531  L 1825 4091  L 703 3866  L 703 4441  L 1819 4666  L 2450 4666  L 2450 531  L 3481 531  L 3481 0  L 794 0  L 794 531  z " id="DejaVuSans-31" transform="scale(0.015625)" />
     </defs>
     <use xlink:href="#DejaVuSans-63" />
     <use x="54.980469" xlink:href="#DejaVuSans-6c" />
     <use x="82.763672" xlink:href="#DejaVuSans-61" />
     <use x="144.042969" xlink:href="#DejaVuSans-73" />
     <use x="196.142578" xlink:href="#DejaVuSans-73" />
     <use x="248.242188" xlink:href="#DejaVuSans-31" />
    </g>
   </g>
  </g>
 </g>
</svg></g>

<g class="edge" id="edge10">
<title>node11-&gt;leaf12</title>
<path d="M265.56,-134.95C265.68,-122.68 265.99,-92.53 266.22,-69.98" fill="none" stroke="#444443" stroke-width="0.3" />
<polygon fill="#444443" points="267.62,-69.87 266.26,-65.86 264.82,-69.84 267.62,-69.87" stroke="#444443" stroke-width="0.3" />
</g>

<g class="node" id="node14">
<title>leaf13</title>
<polygon fill="none" points="362.5,-83 296.5,-83 296.5,0 362.5,0 362.5,-83" stroke="#444443" stroke-width="0" />
<svg height="75px" preserveAspectRatio="xMinYMin meet" version="1.1" viewBox="0 0 77.915998 99.820983" width="58px" x="300.5" y="-78.5">
 <metadata>
  <rdf:RDF>
   <ns2:Work>
    <dc:type rdf:resource="http://purl.org/dc/dcmitype/StillImage" />
    <dc:date>2023-03-07T21:00:01.251175</dc:date>
    <dc:format>image/svg+xml</dc:format>
    <dc:creator>
     <ns2:Agent>
      <dc:title>Matplotlib v3.4.1, https://matplotlib.org/</dc:title>
     </ns2:Agent>
    </dc:creator>
   </ns2:Work>
  </rdf:RDF>
 </metadata>
 <defs>
  <style type="text/css">*{stroke-linecap:butt;stroke-linejoin:round;}</style>
 </defs>
 <g id="figure_1">
  <g id="patch_1">
   <path d="M -0 99.820983  L 77.915998 99.820983  L 77.915998 0  L -0 0  z " style="fill:none;" />
  </g>
  <g id="axes_1">
   <g id="patch_2">
    <path d="M 77.915998 38.958  C 77.915998 33.932391 76.943538 28.953936 75.052354 24.297739  C 73.16117 19.641542 70.386752 15.394979 66.882411 11.792711  C 63.37807 8.190442 59.209567 5.300066 54.607248 3.281302  C 50.00493 1.262538 45.05516 0.153269 40.03146 0.014792  C 35.007759 -0.123686 30.004399 0.711228 25.29786 2.473395  C 20.591321 4.235562 16.269923 6.891916 12.572462 10.295668  C 8.875002 13.69942 5.870863 17.786699 3.726052 22.331644  C 1.58124 26.876589 0.336005 31.793914 0.059155 36.811892  C -0.217694 41.829869 0.479038 46.854335 2.11085 51.607643  C 3.742663 56.36095 6.278935 60.753901 9.579514 64.543746  C 12.880092 68.333591 16.883042 71.449211 21.367163 73.718441  C 25.851283 75.987671 30.73243 77.367927 35.740873 77.782938  C 40.749317 78.19795 45.791073 77.639928 50.58754 76.139709  C 55.384006 74.639491 59.845174 72.225227 63.724525 69.030328  C 67.603876 65.835429 70.828612 61.919848 73.220537 57.499957  C 75.612463 53.080066 77.126692 48.238805 77.67955 43.243698  L 38.957998 38.958  L 77.915998 38.958  z " style="fill:#ff0028;stroke:#444443;stroke-linejoin:miter;stroke-width:0.5;" />
   </g>
   <g id="patch_3">
    <path d="M 77.67955 43.243698  C 77.758291 42.532265 77.817411 41.818797 77.856841 41.104107  C 77.896272 40.389416 77.915998 39.673775 77.915998 38.957998  L 38.957998 38.958  L 77.67955 43.243698  z " style="fill:#5bff00;stroke:#444443;stroke-linejoin:miter;stroke-width:0.5;" />
   </g>
   <g id="patch_4">
    <path d="M 77.915998 38.957998  C 77.915998 38.957998 77.915998 38.957998 77.915998 38.957998  L 38.957998 38.958  L 77.915998 38.957998  z " style="fill:#008fff;stroke:#444443;stroke-linejoin:miter;stroke-width:0.5;" />
   </g>
   <g id="patch_5">
    <path d="M 77.915998 38.957998  C 77.915998 38.957998 77.915998 38.957998 77.915998 38.957998  L 38.957998 38.958  L 77.915998 38.957998  z " style="fill:#ff00bf;stroke:#444443;stroke-linejoin:miter;stroke-width:0.5;" />
   </g>
   <g id="text_1">
    
    <g style="fill:#444443;" transform="translate(26.609014 87.871233)scale(0.09 -0.09)">
     <defs>
      <path d="M 3513 2113  L 3513 0  L 2938 0  L 2938 2094  Q 2938 2591 2744 2837  Q 2550 3084 2163 3084  Q 1697 3084 1428 2787  Q 1159 2491 1159 1978  L 1159 0  L 581 0  L 581 3500  L 1159 3500  L 1159 2956  Q 1366 3272 1645 3428  Q 1925 3584 2291 3584  Q 2894 3584 3203 3211  Q 3513 2838 3513 2113  z " id="DejaVuSans-6e" transform="scale(0.015625)" />
      <path d="M 678 2906  L 4684 2906  L 4684 2381  L 678 2381  L 678 2906  z M 678 1631  L 4684 1631  L 4684 1100  L 678 1100  L 678 1631  z " id="DejaVuSans-3d" transform="scale(0.015625)" />
      <path d="M 691 4666  L 3169 4666  L 3169 4134  L 1269 4134  L 1269 2991  Q 1406 3038 1543 3061  Q 1681 3084 1819 3084  Q 2600 3084 3056 2656  Q 3513 2228 3513 1497  Q 3513 744 3044 326  Q 2575 -91 1722 -91  Q 1428 -91 1123 -41  Q 819 9 494 109  L 494 744  Q 775 591 1075 516  Q 1375 441 1709 441  Q 2250 441 2565 725  Q 2881 1009 2881 1497  Q 2881 1984 2565 2268  Q 2250 2553 1709 2553  Q 1456 2553 1204 2497  Q 953 2441 691 2322  L 691 4666  z " id="DejaVuSans-35" transform="scale(0.015625)" />
      <path d="M 525 4666  L 3525 4666  L 3525 4397  L 1831 0  L 1172 0  L 2766 4134  L 525 4134  L 525 4666  z " id="DejaVuSans-37" transform="scale(0.015625)" />
     </defs>
     <use xlink:href="#DejaVuSans-6e" />
     <use x="63.378906" xlink:href="#DejaVuSans-3d" />
     <use x="147.167969" xlink:href="#DejaVuSans-35" />
     <use x="210.791016" xlink:href="#DejaVuSans-37" />
    </g>
    
    <g style="fill:#444443;" transform="translate(24.924326 97.949265)scale(0.09 -0.09)">
     <defs>
      <path d="M 3122 3366  L 3122 2828  Q 2878 2963 2633 3030  Q 2388 3097 2138 3097  Q 1578 3097 1268 2742  Q 959 2388 959 1747  Q 959 1106 1268 751  Q 1578 397 2138 397  Q 2388 397 2633 464  Q 2878 531 3122 666  L 3122 134  Q 2881 22 2623 -34  Q 2366 -91 2075 -91  Q 1284 -91 818 406  Q 353 903 353 1747  Q 353 2603 823 3093  Q 1294 3584 2113 3584  Q 2378 3584 2631 3529  Q 2884 3475 3122 3366  z " id="DejaVuSans-63" transform="scale(0.015625)" />
      <path d="M 603 4863  L 1178 4863  L 1178 0  L 603 0  L 603 4863  z " id="DejaVuSans-6c" transform="scale(0.015625)" />
      <path d="M 2194 1759  Q 1497 1759 1228 1600  Q 959 1441 959 1056  Q 959 750 1161 570  Q 1363 391 1709 391  Q 2188 391 2477 730  Q 2766 1069 2766 1631  L 2766 1759  L 2194 1759  z M 3341 1997  L 3341 0  L 2766 0  L 2766 531  Q 2569 213 2275 61  Q 1981 -91 1556 -91  Q 1019 -91 701 211  Q 384 513 384 1019  Q 384 1609 779 1909  Q 1175 2209 1959 2209  L 2766 2209  L 2766 2266  Q 2766 2663 2505 2880  Q 2244 3097 1772 3097  Q 1472 3097 1187 3025  Q 903 2953 641 2809  L 641 3341  Q 956 3463 1253 3523  Q 1550 3584 1831 3584  Q 2591 3584 2966 3190  Q 3341 2797 3341 1997  z " id="DejaVuSans-61" transform="scale(0.015625)" />
      <path d="M 2834 3397  L 2834 2853  Q 2591 2978 2328 3040  Q 2066 3103 1784 3103  Q 1356 3103 1142 2972  Q 928 2841 928 2578  Q 928 2378 1081 2264  Q 1234 2150 1697 2047  L 1894 2003  Q 2506 1872 2764 1633  Q 3022 1394 3022 966  Q 3022 478 2636 193  Q 2250 -91 1575 -91  Q 1294 -91 989 -36  Q 684 19 347 128  L 347 722  Q 666 556 975 473  Q 1284 391 1588 391  Q 1994 391 2212 530  Q 2431 669 2431 922  Q 2431 1156 2273 1281  Q 2116 1406 1581 1522  L 1381 1569  Q 847 1681 609 1914  Q 372 2147 372 2553  Q 372 3047 722 3315  Q 1072 3584 1716 3584  Q 2034 3584 2315 3537  Q 2597 3491 2834 3397  z " id="DejaVuSans-73" transform="scale(0.015625)" />
      <path d="M 794 531  L 1825 531  L 1825 4091  L 703 3866  L 703 4441  L 1819 4666  L 2450 4666  L 2450 531  L 3481 531  L 3481 0  L 794 0  L 794 531  z " id="DejaVuSans-31" transform="scale(0.015625)" />
     </defs>
     <use xlink:href="#DejaVuSans-63" />
     <use x="54.980469" xlink:href="#DejaVuSans-6c" />
     <use x="82.763672" xlink:href="#DejaVuSans-61" />
     <use x="144.042969" xlink:href="#DejaVuSans-73" />
     <use x="196.142578" xlink:href="#DejaVuSans-73" />
     <use x="248.242188" xlink:href="#DejaVuSans-31" />
    </g>
   </g>
  </g>
 </g>
</svg></g>

<g class="edge" id="edge11">
<title>node11-&gt;leaf13</title>
<path d="M269.12,-134.95C275.22,-125.61 288.08,-105.93 300.36,-87.11" fill="none" stroke="#444443" stroke-width="0.3" />
<polygon fill="#444443" points="301.8,-87.48 302.81,-83.37 299.45,-85.95 301.8,-87.48" stroke="#444443" stroke-width="0.3" />
</g>

<g class="edge" id="edge13">
<title>node7-&gt;node8</title>
<path d="M190.5,-199.69C190.5,-188.85 190.5,-165.46 190.5,-152.2" fill="none" stroke="#444443" stroke-width="0.3" />
<polygon fill="#444443" points="191.9,-152.12 190.5,-148.12 189.1,-152.12 191.9,-152.12" stroke="#444443" stroke-width="0.3" />
</g>

<g class="edge" id="edge14">
<title>node7-&gt;node11</title>
<path d="M197.16,-199.91C210.35,-188.82 239.91,-164 255.47,-150.92" fill="none" stroke="#444443" stroke-width="0.3" />
<polygon fill="#444443" points="256.59,-151.81 258.75,-148.17 254.79,-149.67 256.59,-151.81" stroke="#444443" stroke-width="0.3" />
</g>

<g class="node" id="node6">
<title>node1</title>
<text fill="#444443" font-family="Helvetica,sans-Serif" font-size="12.00" text-anchor="start" x="120.5" y="-268.4">x_1@-0.42</text>
</g>

<g class="edge" id="edge16">
<title>node1-&gt;node2</title>
<path d="M149.18,-264.69C142.93,-253.75 129.39,-230.05 121.84,-216.85" fill="none" stroke="#444443" stroke-width="0.3" />
<polygon fill="#444443" points="122.91,-215.9 119.71,-213.12 120.48,-217.29 122.91,-215.9" stroke="#444443" stroke-width="0.3" />
</g>

<g class="edge" id="edge17">
<title>node1-&gt;node7</title>
<path d="M156.01,-264.69C162.6,-253.75 176.9,-230.05 184.86,-216.85" fill="none" stroke="#444443" stroke-width="0.3" />
<polygon fill="#444443" points="186.24,-217.27 187.11,-213.12 183.85,-215.82 186.24,-217.27" stroke="#444443" stroke-width="0.3" />
</g>

<g class="node" id="node15">
<title>leaf14</title>
<polygon fill="none" points="265,-313 198,-313 198,-230 265,-230 265,-313" stroke="#444443" stroke-width="0" />
<svg height="75px" preserveAspectRatio="xMinYMin meet" version="1.1" viewBox="0 0 78.52 100.449144" width="59px" x="202.5" y="-308.5">
 <metadata>
  <rdf:RDF>
   <ns2:Work>
    <dc:type rdf:resource="http://purl.org/dc/dcmitype/StillImage" />
    <dc:date>2023-03-07T21:00:01.297703</dc:date>
    <dc:format>image/svg+xml</dc:format>
    <dc:creator>
     <ns2:Agent>
      <dc:title>Matplotlib v3.4.1, https://matplotlib.org/</dc:title>
     </ns2:Agent>
    </dc:creator>
   </ns2:Work>
  </rdf:RDF>
 </metadata>
 <defs>
  <style type="text/css">*{stroke-linecap:butt;stroke-linejoin:round;}</style>
 </defs>
 <g id="figure_1">
  <g id="patch_1">
   <path d="M -0 100.449144  L 78.52 100.449144  L 78.52 -0  L -0 -0  z " style="fill:none;" />
  </g>
  <g id="axes_1">
   <g id="patch_2">
    <path d="M 78.52 39.26  C 78.52 34.104424 77.504464 28.99898 75.53151 24.235848  C 73.558557 19.472717 70.666555 15.14453 67.021012 11.498988  C 63.37547 7.853445 59.047283 4.961443 54.284152 2.98849  C 49.52102 1.015536 44.415576 0 39.26 0  C 34.104424 0 28.99898 1.015536 24.235848 2.98849  C 19.472717 4.961443 15.14453 7.853445 11.498988 11.498988  C 7.853445 15.14453 4.961443 19.472717 2.98849 24.235848  C 1.015536 28.99898 0 34.104424 0 39.26  C 0 44.415576 1.015536 49.52102 2.98849 54.284152  C 4.961443 59.047283 7.853445 63.37547 11.498988 67.021012  C 15.14453 70.666555 19.472717 73.558557 24.235848 75.53151  C 28.99898 77.504464 34.104424 78.52 39.26 78.52  C 44.415576 78.52 49.52102 77.504464 54.284152 75.53151  C 59.047283 73.558557 63.37547 70.666555 67.021012 67.021012  C 70.666555 63.37547 73.558557 59.047283 75.53151 54.284152  C 77.504464 49.52102 78.52 44.415576 78.52 39.26  M 39.26 39.26  M 78.52 39.26  z " style="fill:#ff00bf;stroke:#444443;stroke-linejoin:miter;stroke-width:0.5;" />
   </g>
   <g id="text_1">
    
    <g style="fill:#444443;" transform="translate(26.911016 88.499394)scale(0.09 -0.09)">
     <defs>
      <path d="M 3513 2113  L 3513 0  L 2938 0  L 2938 2094  Q 2938 2591 2744 2837  Q 2550 3084 2163 3084  Q 1697 3084 1428 2787  Q 1159 2491 1159 1978  L 1159 0  L 581 0  L 581 3500  L 1159 3500  L 1159 2956  Q 1366 3272 1645 3428  Q 1925 3584 2291 3584  Q 2894 3584 3203 3211  Q 3513 2838 3513 2113  z " id="DejaVuSans-6e" transform="scale(0.015625)" />
      <path d="M 678 2906  L 4684 2906  L 4684 2381  L 678 2381  L 678 2906  z M 678 1631  L 4684 1631  L 4684 1100  L 678 1100  L 678 1631  z " id="DejaVuSans-3d" transform="scale(0.015625)" />
      <path d="M 2113 2584  Q 1688 2584 1439 2293  Q 1191 2003 1191 1497  Q 1191 994 1439 701  Q 1688 409 2113 409  Q 2538 409 2786 701  Q 3034 994 3034 1497  Q 3034 2003 2786 2293  Q 2538 2584 2113 2584  z M 3366 4563  L 3366 3988  Q 3128 4100 2886 4159  Q 2644 4219 2406 4219  Q 1781 4219 1451 3797  Q 1122 3375 1075 2522  Q 1259 2794 1537 2939  Q 1816 3084 2150 3084  Q 2853 3084 3261 2657  Q 3669 2231 3669 1497  Q 3669 778 3244 343  Q 2819 -91 2113 -91  Q 1303 -91 875 529  Q 447 1150 447 2328  Q 447 3434 972 4092  Q 1497 4750 2381 4750  Q 2619 4750 2861 4703  Q 3103 4656 3366 4563  z " id="DejaVuSans-36" transform="scale(0.015625)" />
      <path d="M 2034 2216  Q 1584 2216 1326 1975  Q 1069 1734 1069 1313  Q 1069 891 1326 650  Q 1584 409 2034 409  Q 2484 409 2743 651  Q 3003 894 3003 1313  Q 3003 1734 2745 1975  Q 2488 2216 2034 2216  z M 1403 2484  Q 997 2584 770 2862  Q 544 3141 544 3541  Q 544 4100 942 4425  Q 1341 4750 2034 4750  Q 2731 4750 3128 4425  Q 3525 4100 3525 3541  Q 3525 3141 3298 2862  Q 3072 2584 2669 2484  Q 3125 2378 3379 2068  Q 3634 1759 3634 1313  Q 3634 634 3220 271  Q 2806 -91 2034 -91  Q 1263 -91 848 271  Q 434 634 434 1313  Q 434 1759 690 2068  Q 947 2378 1403 2484  z M 1172 3481  Q 1172 3119 1398 2916  Q 1625 2713 2034 2713  Q 2441 2713 2670 2916  Q 2900 3119 2900 3481  Q 2900 3844 2670 4047  Q 2441 4250 2034 4250  Q 1625 4250 1398 4047  Q 1172 3844 1172 3481  z " id="DejaVuSans-38" transform="scale(0.015625)" />
     </defs>
     <use xlink:href="#DejaVuSans-6e" />
     <use x="63.378906" xlink:href="#DejaVuSans-3d" />
     <use x="147.167969" xlink:href="#DejaVuSans-36" />
     <use x="210.791016" xlink:href="#DejaVuSans-38" />
    </g>
    
    <g style="fill:#444443;" transform="translate(25.226328 98.577425)scale(0.09 -0.09)">
     <defs>
      <path d="M 3122 3366  L 3122 2828  Q 2878 2963 2633 3030  Q 2388 3097 2138 3097  Q 1578 3097 1268 2742  Q 959 2388 959 1747  Q 959 1106 1268 751  Q 1578 397 2138 397  Q 2388 397 2633 464  Q 2878 531 3122 666  L 3122 134  Q 2881 22 2623 -34  Q 2366 -91 2075 -91  Q 1284 -91 818 406  Q 353 903 353 1747  Q 353 2603 823 3093  Q 1294 3584 2113 3584  Q 2378 3584 2631 3529  Q 2884 3475 3122 3366  z " id="DejaVuSans-63" transform="scale(0.015625)" />
      <path d="M 603 4863  L 1178 4863  L 1178 0  L 603 0  L 603 4863  z " id="DejaVuSans-6c" transform="scale(0.015625)" />
      <path d="M 2194 1759  Q 1497 1759 1228 1600  Q 959 1441 959 1056  Q 959 750 1161 570  Q 1363 391 1709 391  Q 2188 391 2477 730  Q 2766 1069 2766 1631  L 2766 1759  L 2194 1759  z M 3341 1997  L 3341 0  L 2766 0  L 2766 531  Q 2569 213 2275 61  Q 1981 -91 1556 -91  Q 1019 -91 701 211  Q 384 513 384 1019  Q 384 1609 779 1909  Q 1175 2209 1959 2209  L 2766 2209  L 2766 2266  Q 2766 2663 2505 2880  Q 2244 3097 1772 3097  Q 1472 3097 1187 3025  Q 903 2953 641 2809  L 641 3341  Q 956 3463 1253 3523  Q 1550 3584 1831 3584  Q 2591 3584 2966 3190  Q 3341 2797 3341 1997  z " id="DejaVuSans-61" transform="scale(0.015625)" />
      <path d="M 2834 3397  L 2834 2853  Q 2591 2978 2328 3040  Q 2066 3103 1784 3103  Q 1356 3103 1142 2972  Q 928 2841 928 2578  Q 928 2378 1081 2264  Q 1234 2150 1697 2047  L 1894 2003  Q 2506 1872 2764 1633  Q 3022 1394 3022 966  Q 3022 478 2636 193  Q 2250 -91 1575 -91  Q 1294 -91 989 -36  Q 684 19 347 128  L 347 722  Q 666 556 975 473  Q 1284 391 1588 391  Q 1994 391 2212 530  Q 2431 669 2431 922  Q 2431 1156 2273 1281  Q 2116 1406 1581 1522  L 1381 1569  Q 847 1681 609 1914  Q 372 2147 372 2553  Q 372 3047 722 3315  Q 1072 3584 1716 3584  Q 2034 3584 2315 3537  Q 2597 3491 2834 3397  z " id="DejaVuSans-73" transform="scale(0.015625)" />
      <path d="M 2419 4116  L 825 1625  L 2419 1625  L 2419 4116  z M 2253 4666  L 3047 4666  L 3047 1625  L 3713 1625  L 3713 1100  L 3047 1100  L 3047 0  L 2419 0  L 2419 1100  L 313 1100  L 313 1709  L 2253 4666  z " id="DejaVuSans-34" transform="scale(0.015625)" />
     </defs>
     <use xlink:href="#DejaVuSans-63" />
     <use x="54.980469" xlink:href="#DejaVuSans-6c" />
     <use x="82.763672" xlink:href="#DejaVuSans-61" />
     <use x="144.042969" xlink:href="#DejaVuSans-73" />
     <use x="196.142578" xlink:href="#DejaVuSans-73" />
     <use x="248.242188" xlink:href="#DejaVuSans-34" />
    </g>
   </g>
  </g>
 </g>
</svg></g>


<g class="node" id="node7">
<title>node0</title>
<text fill="#444443" font-family="Helvetica,sans-Serif" font-size="12.00" text-anchor="start" x="162" y="-374.4">x_2@6.26</text>
</g>

<g class="edge" id="edge19">
<title>node0-&gt;node1</title>
<path d="M189.4,-370.91C183.05,-353.98 163.99,-303.14 156.04,-281.95" fill="none" stroke="#444443" stroke-width="0.3" />
<polygon fill="#444443" points="157.32,-281.37 154.61,-278.12 154.7,-282.36 157.32,-281.37" stroke="#444443" stroke-width="0.3" />
<text font-family="Times,serif" font-size="14.00" text-anchor="start" x="175.5" y="-324.8">&#8804;</text>
</g>

<g class="edge" id="edge20">
<title>node0-&gt;leaf14</title>
<path d="M193.65,-370.91C197.59,-360.66 206.31,-337.99 214.39,-316.99" fill="none" stroke="#444443" stroke-width="0.3" />
<polygon fill="#444443" points="215.76,-317.33 215.89,-313.09 213.15,-316.32 215.76,-317.33" stroke="#444443" stroke-width="0.3" />
<text font-family="Times,serif" font-size="14.00" text-anchor="start" x="213.5" y="-324.8">&gt;</text>
</g>





<g class="node" id="node16">
<title>legend</title>
<polygon fill="none" points="285,-411 228,-411 228,-344 285,-344 285,-411" stroke="black" stroke-width="0" />
<svg height="63px" preserveAspectRatio="xMinYMin meet" version="1.1" viewBox="0 0 70.685937 84.46875" width="53px" x="230.5" y="-408.5">
 <metadata>
  <rdf:RDF>
   <ns2:Work>
    <dc:type rdf:resource="http://purl.org/dc/dcmitype/StillImage" />
    <dc:date>2023-03-07T20:59:59.967252</dc:date>
    <dc:format>image/svg+xml</dc:format>
    <dc:creator>
     <ns2:Agent>
      <dc:title>Matplotlib v3.4.1, https://matplotlib.org/</dc:title>
     </ns2:Agent>
    </dc:creator>
   </ns2:Work>
  </rdf:RDF>
 </metadata>
 <defs>
  <style type="text/css">*{stroke-linecap:butt;stroke-linejoin:round;}</style>
 </defs>
 <g id="figure_1">
  <g id="patch_1">
   <path d="M 0 84.46875  L 70.685937 84.46875  L 70.685937 0  L 0 0  z " style="fill:none;" />
  </g>
  <g id="axes_1">
   <g id="legend_1">
    <g id="patch_2">
     <path d="M 2 84.46875  L 68.685937 84.46875  Q 70.685937 84.46875 70.685937 82.46875  L 70.685937 2  Q 70.685937 0 68.685937 0  L 2 0  Q 0 0 0 2  L 0 82.46875  Q 0 84.46875 2 84.46875  z " style="fill:#ffffff;opacity:0.8;stroke:#444443;stroke-linejoin:miter;stroke-width:0.5;" />
    </g>
    <g id="text_1">
     
     <g style="fill:#444443;" transform="translate(32.083594 15.598438)scale(0.1 -0.1)">
      <defs>
       <path d="M 78 3500  L 1197 3500  L 2138 1125  L 2938 3500  L 4056 3500  L 2584 -331  Q 2363 -916 2067 -1148  Q 1772 -1381 1288 -1381  L 641 -1381  L 641 -647  L 991 -647  Q 1275 -647 1404 -556  Q 1534 -466 1606 -231  L 1638 -134  L 78 3500  z " id="DejaVuSans-Bold-79" transform="scale(0.015625)" />
      </defs>
      <use xlink:href="#DejaVuSans-Bold-79" />
     </g>
    </g>
    <g id="patch_3">
     <path d="M 8 30.354688  L 28 30.354688  L 28 23.354688  L 8 23.354688  z " style="fill:#ff0028;stroke:#000000;stroke-linejoin:miter;stroke-width:0.4;" />
    </g>
    <g id="text_2">
     
     <g style="fill:#444443;" transform="translate(31.5 30.354688)scale(0.1 -0.1)">
      <defs>
       <path d="M 3122 3366  L 3122 2828  Q 2878 2963 2633 3030  Q 2388 3097 2138 3097  Q 1578 3097 1268 2742  Q 959 2388 959 1747  Q 959 1106 1268 751  Q 1578 397 2138 397  Q 2388 397 2633 464  Q 2878 531 3122 666  L 3122 134  Q 2881 22 2623 -34  Q 2366 -91 2075 -91  Q 1284 -91 818 406  Q 353 903 353 1747  Q 353 2603 823 3093  Q 1294 3584 2113 3584  Q 2378 3584 2631 3529  Q 2884 3475 3122 3366  z " id="DejaVuSans-63" transform="scale(0.015625)" />
       <path d="M 603 4863  L 1178 4863  L 1178 0  L 603 0  L 603 4863  z " id="DejaVuSans-6c" transform="scale(0.015625)" />
       <path d="M 2194 1759  Q 1497 1759 1228 1600  Q 959 1441 959 1056  Q 959 750 1161 570  Q 1363 391 1709 391  Q 2188 391 2477 730  Q 2766 1069 2766 1631  L 2766 1759  L 2194 1759  z M 3341 1997  L 3341 0  L 2766 0  L 2766 531  Q 2569 213 2275 61  Q 1981 -91 1556 -91  Q 1019 -91 701 211  Q 384 513 384 1019  Q 384 1609 779 1909  Q 1175 2209 1959 2209  L 2766 2209  L 2766 2266  Q 2766 2663 2505 2880  Q 2244 3097 1772 3097  Q 1472 3097 1187 3025  Q 903 2953 641 2809  L 641 3341  Q 956 3463 1253 3523  Q 1550 3584 1831 3584  Q 2591 3584 2966 3190  Q 3341 2797 3341 1997  z " id="DejaVuSans-61" transform="scale(0.015625)" />
       <path d="M 2834 3397  L 2834 2853  Q 2591 2978 2328 3040  Q 2066 3103 1784 3103  Q 1356 3103 1142 2972  Q 928 2841 928 2578  Q 928 2378 1081 2264  Q 1234 2150 1697 2047  L 1894 2003  Q 2506 1872 2764 1633  Q 3022 1394 3022 966  Q 3022 478 2636 193  Q 2250 -91 1575 -91  Q 1294 -91 989 -36  Q 684 19 347 128  L 347 722  Q 666 556 975 473  Q 1284 391 1588 391  Q 1994 391 2212 530  Q 2431 669 2431 922  Q 2431 1156 2273 1281  Q 2116 1406 1581 1522  L 1381 1569  Q 847 1681 609 1914  Q 372 2147 372 2553  Q 372 3047 722 3315  Q 1072 3584 1716 3584  Q 2034 3584 2315 3537  Q 2597 3491 2834 3397  z " id="DejaVuSans-73" transform="scale(0.015625)" />
       <path d="M 794 531  L 1825 531  L 1825 4091  L 703 3866  L 703 4441  L 1819 4666  L 2450 4666  L 2450 531  L 3481 531  L 3481 0  L 794 0  L 794 531  z " id="DejaVuSans-31" transform="scale(0.015625)" />
      </defs>
      <use xlink:href="#DejaVuSans-63" />
      <use x="54.980469" xlink:href="#DejaVuSans-6c" />
      <use x="82.763672" xlink:href="#DejaVuSans-61" />
      <use x="144.042969" xlink:href="#DejaVuSans-73" />
      <use x="196.142578" xlink:href="#DejaVuSans-73" />
      <use x="248.242188" xlink:href="#DejaVuSans-31" />
     </g>
    </g>
    <g id="patch_4">
     <path d="M 8 45.032813  L 28 45.032813  L 28 38.032813  L 8 38.032813  z " style="fill:#5bff00;stroke:#000000;stroke-linejoin:miter;stroke-width:0.4;" />
    </g>
    <g id="text_3">
     
     <g style="fill:#444443;" transform="translate(31.5 45.032813)scale(0.1 -0.1)">
      <defs>
       <path d="M 1228 531  L 3431 531  L 3431 0  L 469 0  L 469 531  Q 828 903 1448 1529  Q 2069 2156 2228 2338  Q 2531 2678 2651 2914  Q 2772 3150 2772 3378  Q 2772 3750 2511 3984  Q 2250 4219 1831 4219  Q 1534 4219 1204 4116  Q 875 4013 500 3803  L 500 4441  Q 881 4594 1212 4672  Q 1544 4750 1819 4750  Q 2544 4750 2975 4387  Q 3406 4025 3406 3419  Q 3406 3131 3298 2873  Q 3191 2616 2906 2266  Q 2828 2175 2409 1742  Q 1991 1309 1228 531  z " id="DejaVuSans-32" transform="scale(0.015625)" />
      </defs>
      <use xlink:href="#DejaVuSans-63" />
      <use x="54.980469" xlink:href="#DejaVuSans-6c" />
      <use x="82.763672" xlink:href="#DejaVuSans-61" />
      <use x="144.042969" xlink:href="#DejaVuSans-73" />
      <use x="196.142578" xlink:href="#DejaVuSans-73" />
      <use x="248.242188" xlink:href="#DejaVuSans-32" />
     </g>
    </g>
    <g id="patch_5">
     <path d="M 8 59.710938  L 28 59.710938  L 28 52.710938  L 8 52.710938  z " style="fill:#008fff;stroke:#000000;stroke-linejoin:miter;stroke-width:0.4;" />
    </g>
    <g id="text_4">
     
     <g style="fill:#444443;" transform="translate(31.5 59.710938)scale(0.1 -0.1)">
      <defs>
       <path d="M 2597 2516  Q 3050 2419 3304 2112  Q 3559 1806 3559 1356  Q 3559 666 3084 287  Q 2609 -91 1734 -91  Q 1441 -91 1130 -33  Q 819 25 488 141  L 488 750  Q 750 597 1062 519  Q 1375 441 1716 441  Q 2309 441 2620 675  Q 2931 909 2931 1356  Q 2931 1769 2642 2001  Q 2353 2234 1838 2234  L 1294 2234  L 1294 2753  L 1863 2753  Q 2328 2753 2575 2939  Q 2822 3125 2822 3475  Q 2822 3834 2567 4026  Q 2313 4219 1838 4219  Q 1578 4219 1281 4162  Q 984 4106 628 3988  L 628 4550  Q 988 4650 1302 4700  Q 1616 4750 1894 4750  Q 2613 4750 3031 4423  Q 3450 4097 3450 3541  Q 3450 3153 3228 2886  Q 3006 2619 2597 2516  z " id="DejaVuSans-33" transform="scale(0.015625)" />
      </defs>
      <use xlink:href="#DejaVuSans-63" />
      <use x="54.980469" xlink:href="#DejaVuSans-6c" />
      <use x="82.763672" xlink:href="#DejaVuSans-61" />
      <use x="144.042969" xlink:href="#DejaVuSans-73" />
      <use x="196.142578" xlink:href="#DejaVuSans-73" />
      <use x="248.242188" xlink:href="#DejaVuSans-33" />
     </g>
    </g>
    <g id="patch_6">
     <path d="M 8 74.389063  L 28 74.389063  L 28 67.389063  L 8 67.389063  z " style="fill:#ff00bf;stroke:#000000;stroke-linejoin:miter;stroke-width:0.4;" />
    </g>
    <g id="text_5">
     
     <g style="fill:#444443;" transform="translate(31.5 74.389063)scale(0.1 -0.1)">
      <defs>
       <path d="M 2419 4116  L 825 1625  L 2419 1625  L 2419 4116  z M 2253 4666  L 3047 4666  L 3047 1625  L 3713 1625  L 3713 1100  L 3047 1100  L 3047 0  L 2419 0  L 2419 1100  L 313 1100  L 313 1709  L 2253 4666  z " id="DejaVuSans-34" transform="scale(0.015625)" />
      </defs>
      <use xlink:href="#DejaVuSans-63" />
      <use x="54.980469" xlink:href="#DejaVuSans-6c" />
      <use x="82.763672" xlink:href="#DejaVuSans-61" />
      <use x="144.042969" xlink:href="#DejaVuSans-73" />
      <use x="196.142578" xlink:href="#DejaVuSans-73" />
      <use x="248.242188" xlink:href="#DejaVuSans-34" />
     </g>
    </g>
   </g>
  </g>
 </g>
</svg></g>
</g>
</svg>